<?xml version="1.0" encoding="utf-8"?>
<!-- Generator: Adobe Illustrator 15.1.0, SVG Export Plug-In . SVG Version: 6.00 Build 0)  -->
<!DOCTYPE svg PUBLIC "-//W3C//DTD SVG 1.1//EN" "http://www.w3.org/Graphics/SVG/1.1/DTD/svg11.dtd">
<svg version="1.1" id="Layer_1" xmlns="http://www.w3.org/2000/svg" xmlns:xlink="http://www.w3.org/1999/xlink" x="0px" y="0px"
	 width="72px" height="72px" viewBox="18 18 72 72" enable-background="new 18 18 72 72" xml:space="preserve">
<g>
	<g>
		<g>
			<path fill="#1DA897" d="M40.505,28.714c-8.271,0-15,6.729-15,15c0,2.326,0.516,4.553,1.521,6.585l12.567,27.826
				c0.026,0.059,0.064,0.107,0.101,0.157c0.011,0.016,0.013,0.034,0.024,0.049c0.003,0.005,0.009,0.007,0.013,0.011
				c0.086,0.105,0.192,0.188,0.311,0.249c0.027,0.015,0.053,0.025,0.08,0.037c0.121,0.052,0.247,0.086,0.383,0.086
				c0.001,0,0.003-0.001,0.004-0.001c0.104,0,0.204-0.018,0.301-0.049c0.027-0.01,0.053-0.025,0.079-0.037
				c0.07-0.029,0.138-0.062,0.199-0.107c0.011-0.008,0.024-0.012,0.034-0.02l3.932-3.089c0.436-0.341,0.511-0.97,0.169-1.404
				c-0.342-0.434-0.97-0.51-1.403-0.168l-0.725,0.568L53.97,50.33c1.018-2.064,1.535-4.291,1.535-6.616
				C55.505,35.443,48.776,28.714,40.505,28.714 M52.161,49.477L40.505,75.285l-11.672-25.84c-0.881-1.787-1.328-3.716-1.328-5.731
				c0-7.169,5.831-13,13-13c7.168,0,13,5.831,13,13C53.505,45.73,53.057,47.658,52.161,49.477"/>
			<path fill="#1DA897" d="M40.505,36.714c-3.86,0-7,3.141-7,7c0,3.86,3.14,7,7,7c3.859,0,7-3.14,7-7
				C47.505,39.854,44.364,36.714,40.505,36.714 M40.505,48.714c-2.757,0-5-2.243-5-5c0-2.757,2.243-5,5-5c2.757,0,5,2.243,5,5
				C45.505,46.471,43.262,48.714,40.505,48.714"/>
			<path fill="#1DA897" d="M68.505,22.714c-6.065,0-11,4.935-11,11c0,1.708,0.379,3.34,1.134,4.864l8.604,16.857l-3.766,2.957
				c-0.435,0.34-0.51,0.969-0.168,1.402c0.197,0.252,0.49,0.385,0.787,0.385c0.215,0,0.434-0.07,0.616-0.216l3.933-3.089
				c0.08-0.062,0.138-0.146,0.192-0.229c0.236-0.084,0.438-0.25,0.56-0.479l8.982-17.604c0.747-1.513,1.126-3.145,1.126-4.852
				C79.505,27.648,74.568,22.714,68.505,22.714 M76.591,37.669l-8.086,15.846l-8.081-15.834c-0.609-1.235-0.919-2.57-0.919-3.967
				c0-4.962,4.038-9,9-9s9,4.038,9,9C77.505,35.111,77.193,36.445,76.591,37.669"/>
			<path fill="#1DA897" d="M68.505,28.714c-2.757,0-5,2.243-5,5c0,2.757,2.243,5,5,5s5-2.243,5-5
				C73.505,30.957,71.262,28.714,68.505,28.714 M68.505,36.714c-1.653,0-3-1.346-3-3c0-1.653,1.347-3,3-3s3,1.347,3,3
				C71.505,35.368,70.158,36.714,68.505,36.714"/>
			<path fill="#1DA897" d="M59.545,61.482l-3.932,3.088c-0.437,0.343-0.51,0.972-0.168,1.404c0.197,0.252,0.49,0.383,0.787,0.383
				c0.216,0,0.434-0.069,0.617-0.215l3.93-3.088c0.436-0.343,0.511-0.971,0.17-1.404C60.607,61.216,59.98,61.141,59.545,61.482"/>
			<path fill="#1DA897" d="M51.682,67.661L47.75,70.75c-0.435,0.341-0.509,0.971-0.168,1.404c0.197,0.25,0.49,0.382,0.787,0.382
				c0.216,0,0.434-0.07,0.616-0.214l3.932-3.09c0.435-0.342,0.51-0.969,0.169-1.403S52.116,67.32,51.682,67.661"/>
		</g>
	</g>
</g>
</svg>
