<?xml version="1.0" encoding="utf-8"?>
<!-- Generator: Adobe Illustrator 16.0.0, SVG Export Plug-In . SVG Version: 6.00 Build 0)  -->
<!DOCTYPE svg PUBLIC "-//W3C//DTD SVG 1.1 Basic//EN" "http://www.w3.org/Graphics/SVG/1.1/DTD/svg11-basic.dtd">
<svg version="1.1" baseProfile="basic" id="Layer_1"
	 xmlns="http://www.w3.org/2000/svg" xmlns:xlink="http://www.w3.org/1999/xlink" x="0px" y="0px" width="72px" height="72px"
	 viewBox="0 0 72 72" xml:space="preserve">
<g>
	<path fill="#1DA897" d="M59.195,8.381h-46c-2.206,0-4,1.794-4,4v46c0,2.206,1.794,4,4,4h4v1c0,0.553,0.447,1,1,1h4
		c0.552,0,1-0.447,1-1v-1h26v1c0,0.553,0.447,1,1,1h4c0.552,0,1-0.447,1-1v-1h4c2.205,0,4-1.794,4-4v-46
		C63.195,10.176,61.4,8.381,59.195,8.381z M61.195,58.381c0,1.104-0.897,2-2,2h-5h-4h-28h-4h-5c-1.104,0-2-0.896-2-2v-46
		c0-1.103,0.896-2,2-2h46c1.103,0,2,0.897,2,2V58.381z"/>
	<path fill="#1DA897" d="M56.195,14.381h-40c-0.553,0-1,0.448-1,1v7h-1c-0.553,0-1,0.448-1,1v4c0,0.552,0.447,1,1,1h1v14h-1
		c-0.553,0-1,0.448-1,1v4c0,0.553,0.447,1,1,1h1v7c0,0.553,0.447,1,1,1h40c0.552,0,1-0.447,1-1v-40
		C57.195,14.829,56.747,14.381,56.195,14.381z M55.195,54.381h-38v-7v-4v-16v-4v-7h38V54.381z"/>
	<path fill="#1DA897" d="M25.488,46.088c0.195,0.195,0.451,0.293,0.707,0.293c0.256,0,0.512-0.098,0.707-0.293l5.108-5.107
		c1.169,0.875,2.614,1.4,4.185,1.4c1.569,0,3.016-0.525,4.184-1.4l5.109,5.107c0.195,0.195,0.451,0.293,0.707,0.293
		s0.512-0.098,0.707-0.293c0.391-0.391,0.391-1.023,0-1.414l-5.109-5.107c0.876-1.17,1.402-2.614,1.402-4.185
		c0-1.57-0.526-3.016-1.402-4.185l5.109-5.108c0.391-0.391,0.391-1.023,0-1.414c-0.391-0.391-1.023-0.391-1.414,0l-5.109,5.109
		c-1.168-0.876-2.613-1.402-4.184-1.402c-1.57,0-3.016,0.526-4.185,1.402l-5.108-5.109c-0.391-0.391-1.023-0.391-1.414,0
		c-0.391,0.391-0.391,1.023,0,1.414l5.108,5.108c-0.876,1.169-1.401,2.615-1.401,4.185c0,1.57,0.525,3.015,1.401,4.185l-5.108,5.107
		C25.098,45.064,25.098,45.697,25.488,46.088z M39.727,31.846c0.002,0,0.002,0.001,0.002,0.002s0.002,0.001,0.002,0.001
		c0.904,0.906,1.465,2.155,1.465,3.532c0,2.758-2.243,5-5,5c-1.374,0-2.62-0.558-3.524-1.458c-0.003-0.003-0.004-0.007-0.007-0.011
		c-0.003-0.002-0.008-0.004-0.011-0.006c-0.9-0.905-1.458-2.151-1.458-3.525c0-2.757,2.243-5,5-5
		C37.572,30.381,38.82,30.941,39.727,31.846z"/>
</g>
</svg>
