<?xml version="1.0" encoding="utf-8"?>
<!-- Generator: Adobe Illustrator 15.1.0, SVG Export Plug-In . SVG Version: 6.00 Build 0)  -->
<!DOCTYPE svg PUBLIC "-//W3C//DTD SVG 1.1//EN" "http://www.w3.org/Graphics/SVG/1.1/DTD/svg11.dtd">
<svg version="1.1" id="Layer_1" xmlns="http://www.w3.org/2000/svg" xmlns:xlink="http://www.w3.org/1999/xlink" x="0px" y="0px"
	 width="72px" height="72px" viewBox="18 18 72 72" enable-background="new 18 18 72 72" xml:space="preserve">
<g>
	<g>
		<g>
			<path fill="#1DA897" d="M31.941,54c-0.256,0-0.512-0.099-0.707-0.293l-6-6c-0.392-0.392-0.392-1.023,0-1.414
				c0.392-0.392,1.022-0.392,1.414,0l5.293,5.293l5.293-5.293c0.392-0.392,1.022-0.392,1.414,0c0.392,0.391,0.392,1.022,0,1.414
				l-6,6C32.454,53.901,32.197,54,31.941,54"/>
			<path fill="#1DA897" d="M79.941,60c-0.256,0-0.512-0.1-0.707-0.293l-5.293-5.293l-5.293,5.293c-0.394,0.391-1.022,0.391-1.414,0
				c-0.394-0.393-0.394-1.023,0-1.414l6-6c0.392-0.392,1.021-0.392,1.414,0l6,6c0.392,0.391,0.392,1.021,0,1.414
				C80.454,59.9,80.197,60,79.941,60"/>
			<path fill="#1DA897" d="M52.941,75c-9.644,0-18.31-6.445-21.075-15.673c-0.158-0.529,0.139-1.086,0.67-1.245
				c0.532-0.158,1.086,0.143,1.245,0.671C36.296,67.143,44.175,73,52.941,73c11.03,0,20-8.973,20-20c0-0.553,0.447-1,1-1
				c0.554,0,1,0.447,1,1C74.941,65.131,65.072,75,52.941,75"/>
			<path fill="#1DA897" d="M31.941,54c-0.553,0-1-0.447-1-1c0-12.131,9.869-22,22-22c9.663,0,18.333,6.46,21.088,15.71
				c0.158,0.529-0.146,1.086-0.674,1.243c-0.526,0.157-1.086-0.144-1.242-0.673C69.607,38.872,61.725,33,52.941,33
				c-11.026,0-20,8.972-20,20C32.941,53.553,32.495,54,31.941,54"/>
		</g>
	</g>
</g>
</svg>
